HIERARCHY
ROOT Hips
{
  OFFSET -331.093 83.8371 -317.828
  CHANNELS 6 Xposition Yposition Zposition Zrotation Xrotation Yrotation
  JOINT LeftUpLeg
  {
    OFFSET 8.64259 1.95398 -2.38835
    CHANNELS 3 Zrotation Xrotation Yrotation
    JOINT LeftLeg
    {
      OFFSET 43.7702 0 0
      CHANNELS 3 Zrotation Xrotation Yrotation
      JOINT LeftFoot
      {
        OFFSET 40.6238 0 0
        CHANNELS 3 Zrotation Xrotation Yrotation
        JOINT LeftToeBase
        {
          OFFSET 12.7242 0 0
          CHANNELS 3 Zrotation Xrotation Yrotation
          End Site
          {
            OFFSET 0 0 0
          }
        }
      }
    }
  }
  JOINT RightUpLeg
  {
    OFFSET -8.2249 1.95398 -2.59336
    CHANNELS 3 Zrotation Xrotation Yrotation
    JOINT RightLeg
    {
      OFFSET 43.5653 0 0
      CHANNELS 3 Zrotation Xrotation Yrotation
      JOINT RightFoot
      {
        OFFSET 40.6238 0 0
        CHANNELS 3 Zrotation Xrotation Yrotation
        JOINT RightToeBase
        {
          OFFSET 12.7242 0 0
          CHANNELS 3 Zrotation Xrotation Yrotation
          End Site
          {
            OFFSET 0 0 0
          }
        }
      }
    }
  }
  JOINT Spine
  {
    OFFSET 0.165834 0.87714 6.61349
    CHANNELS 3 Zrotation Xrotation Yrotation
    JOINT Spine1
    {
      OFFSET 7.38963 1.71661e-005 0
      CHANNELS 3 Zrotation Xrotation Yrotation
      JOINT Spine2
      {
        OFFSET 11.9445 1.14441e-005 0
        CHANNELS 3 Zrotation Xrotation Yrotation
        JOINT Spine3
        {
          OFFSET 14.7254 4.19617e-005 0
          CHANNELS 3 Zrotation Xrotation Yrotation
          JOINT Spine4
          {
            OFFSET 10.9679 0 0
            CHANNELS 3 Zrotation Xrotation Yrotation
            JOINT RightShoulder
            {
              OFFSET 2.46616 -1.6653 3.69651
              CHANNELS 3 Zrotation Xrotation Yrotation
              JOINT RightArm
              {
                OFFSET 13.0012 0 0
                CHANNELS 3 Zrotation Xrotation Yrotation
                JOINT RightForeArm
                {
                  OFFSET 28.7848 1.62311e-005 0
                  CHANNELS 3 Zrotation Xrotation Yrotation
                  JOINT RightHand
                  {
                    OFFSET 26.5688 1.62095e-005 0
                    CHANNELS 3 Zrotation Xrotation Yrotation
                    End Site
                    {
                      OFFSET 0 0 0
                    }
                  }
                }
              }
            }
            JOINT LeftShoulder
            {
              OFFSET 2.38034 -1.29275 -3.7523
              CHANNELS 3 Zrotation Xrotation Yrotation
              JOINT LeftArm
              {
                OFFSET 16.3182 6.07031e-005 0
                CHANNELS 3 Zrotation Xrotation Yrotation
                JOINT LeftForeArm
                {
                  OFFSET 27.0901 0 0
                  CHANNELS 3 Zrotation Xrotation Yrotation
                  JOINT LeftHand
                  {
                    OFFSET 24.5451 1.51738e-005 0
                    CHANNELS 3 Zrotation Xrotation Yrotation
                    End Site
                    {
                      OFFSET 0 0 0
                    }
                  }
                }
              }
            }
            JOINT Neck
            {
              OFFSET 5.0226 -0.0266342 0
              CHANNELS 3 Zrotation Xrotation Yrotation
              JOINT Head
              {
                OFFSET 6.69364 2.86102e-005 0
                CHANNELS 3 Zrotation Xrotation Yrotation
                End Site
                {
                  OFFSET 0 0 0
                }
              }
            }
          }
        }
      }
    }
  }
}
MOTION
Frames:	12
Frame Time:	0.0416667
29.5243 91.7862 12.3659 85.9679 -52.67 81.9414 -173.093 35.5617 85.4557 -31.4336 7.35803 -5.26642 59.9382 -0.294201 2.53808 32.0167 4.83328 8.7576 172.524 -6.05701 81.384 -44.9757 -18.4549 -10.056 50.3675 5.56496 4.13409 42.6642 0.861123 3.87767 1.34437 7.3682 -89.0859 12.1174 3.10461 1.48142 0.449456 3.1668 1.34324 -22.1001 2.51593 2.34623 -2.08743 2.51592 2.34623 92.4054 -37.3752 -99.5246 27.125 -11.4055 -14.3639 -16.2333 -3.71014 -74.4946 -13.7946 -0.482944 -1.55301 -92.0624 -48.377 75.7235 -31.492 -0.443282 31.6344 5.42119 26.4106 -23.9183 7.12149 0.700218 5.14461 3.25208 -1.943 -0.13694 -1.83225 -1.88866 0.966933 
35.4817 92.6212 16.4911 86.8657 -50.7842 82.5956 -172.785 32.6444 83.701 -35.2566 8.7816 -5.83427 63.0324 2.23084 4.27045 29.3323 1.4792 4.62006 175.697 0.176741 82.1198 -55.9657 -10.4613 -9.0667 42.8417 7.74974 6.63824 29.7474 -0.780718 -6.32029 1.10514 7.36421 -89.1211 12.1287 2.61245 1.46548 0.459666 2.67442 1.34902 -22.0831 2.05131 2.18294 -2.07043 2.05133 2.18293 92.5095 -37.4001 -99.3305 29.2595 -13.258 -8.61684 -14.5676 -5.29435 -68.9506 -13.7226 -0.398987 -2.29868 -92.6767 -48.3731 74.8 -31.7696 0.433245 28.9905 6.22998 24.8721 -26.1233 6.47693 0.635274 4.97562 2.94217 -1.5597 0.523129 -2.08513 -1.62222 0.734602 
41.1201 94.0631 20.4655 87.9203 -48.2975 83.0966 -173.74 27.518 81.9566 -34.6583 8.3553 -5.36746 63.6715 2.43199 3.9902 30.4316 2.07835 3.47939 177.081 7.35419 82.6572 -64.8825 -2.58253 -7.34593 45.4462 5.65054 4.63103 26.3339 -0.597609 -6.62257 0.76482 7.42629 -89.1655 12.0077 1.91437 1.45628 0.337494 1.9766 1.3706 -22.1978 1.38828 1.96423 -2.18517 1.38827 1.96422 92.4941 -39.1521 -98.9221 29.6387 -15.2539 -3.45485 -14.8372 -7.1794 -62.6212 -12.7975 -0.303582 -3.22493 -93.504 -48.2155 73.5143 -32.2437 2.41688 24.2701 6.59174 21.5429 -29.1311 8.42689 0.72462 4.23776 2.50084 -1.53463 0.142528 -2.0301 -1.53552 1.35422 
46.3119 95.7073 24.6135 88.4545 -45.1292 84.8523 -175.018 21.4533 82.2824 -31.5043 8.77595 -4.38222 64.6089 3.58841 4.68097 31.9923 2.41538 0.085129 177.614 14.4634 85.2443 -69.045 1.03435 -5.65633 50.5978 3.33747 2.41687 26.3059 -0.719131 -7.82612 0.398497 7.44304 -89.4169 11.9828 1.06741 1.04791 0.311909 1.11249 0.999907 -22.2217 0.703137 1.32023 -2.2091 0.703147 1.32023 92.8181 -39.874 -98.1848 31.0019 -16.8959 1.93985 -13.8642 -9.57049 -57.3461 -13.9536 -0.554351 -1.06497 -93.7044 -48.0048 73.1536 -31.7962 4.825 18.8039 7.46986 17.0322 -34.4672 11.1653 0.943679 4.31487 1.95304 -1.19321 0.278448 -2.17372 -1.22298 1.64289 
51.4974 97.159 28.3585 88.5087 -42.1132 85.9151 -176.664 16.3149 82.493 -28.8605 12.0346 -3.03239 64.3487 2.7963 3.78894 32.8668 4.12087 3.83907 177.606 21.243 87.1557 -67.9297 1.86667 -4.45595 54.5459 1.61977 1.05128 30.0661 -1.01635 -7.74219 0.0339652 7.41702 -89.6473 12.0378 0.233991 0.677517 0.366675 0.263604 0.666551 -22.1669 0.0195782 0.716517 -2.15428 0.019565 0.716516 92.7544 -40.5116 -98.1472 33.008 -17.0658 7.70511 -12.197 -11.0551 -50.8414 -12.1813 -0.460954 -1.60563 -94.1647 -48.1207 72.4962 -30.0716 6.19076 13.8419 7.68224 11.0405 -41.2388 13.4419 1.12596 4.3752 0.981382 -0.994958 0.473473 -2.23105 -1.05658 2.25172 
56.4693 98.1762 32.3547 88.5293 -38.746 86.2312 -177.628 10.4408 82.6984 -24.9257 13.9772 -2.02213 64.1992 2.53823 3.1299 33.7295 5.34312 5.55623 176.982 25.8901 88.1522 -61.3015 1.68191 -3.5623 59.5164 -0.17445 -0.250538 33.7945 -1.33283 -7.59286 -0.368893 7.40652 -89.7308 12.0624 -0.606127 0.603538 0.391411 -0.578984 0.629624 -22.1443 -0.759496 0.393465 -2.13167 -0.759501 0.393458 92.8014 -41.2941 -97.8899 34.6842 -15.7629 12.7626 -10.5579 -13.0172 -44.6303 -8.68346 -0.422716 -0.58503 -93.8646 -47.5044 72.7679 -27.9015 7.33926 7.85269 6.97219 5.95617 -47.489 15.9955 1.33254 4.40832 -0.146579 -0.800972 -0.589004 -1.75618 -0.704364 3.37916 
61.1699 98.416 36.3895 88.1409 -35.5511 86.1932 -177.55 5.82357 83.3883 -22.5537 15.8046 -1.65974 63.9051 1.46377 1.52811 37.0496 8.9805 7.86457 176.309 28.6172 88.7397 -48.7549 3.09102 -2.59425 61.9717 -1.30163 -0.865791 34.3803 -1.18059 -6.43291 -0.706216 7.36384 -89.7912 12.1499 -1.30504 0.561219 0.479492 -1.27909 0.618119 -22.0608 -1.41336 0.142988 -2.04815 -1.41337 0.14298 92.8514 -42.1776 -97.6086 35.621 -13.9068 17.7279 -9.75495 -14.9489 -39.752 -5.52378 -0.372579 0.775076 -93.9478 -46.7539 72.4204 -23.9899 8.91141 0.931721 8.54183 4.89241 -52.562 15.7892 1.16541 3.47605 -1.74441 -0.831635 -0.634957 -0.278998 -0.69972 3.01076 
66.0428 97.7177 40.4888 87.3502 -34.175 84.8985 -177.651 1.90763 82.8809 -21.5478 15.4019 -1.27404 65.5542 2.31016 2.13554 38.8965 9.71894 5.61427 176.287 29.1227 87.9934 -31.2046 -0.408317 -1.98664 63.1173 -2.41031 -1.36493 37.2746 -1.98648 -9.44662 -0.875322 7.31996 -89.735 12.2398 -1.61405 0.709809 0.569661 -1.58125 0.780163 -21.9733 -1.75274 0.191775 -1.96067 -1.75274 0.191775 92.6859 -43.2895 -97.6441 35.6612 -11.792 22.2638 -9.72006 -16.466 -36.5524 -1.4173 -0.189519 1.58018 -94.044 -45.9381 72.0281 -20.5189 7.74147 -5.19716 9.45262 3.02296 -58.3019 16.6878 1.35872 4.24905 -2.92327 -0.974197 -1.11188 1.57783 -0.739528 3.1641 
70.8916 96.4505 44.7372 86.3957 -32.1505 84.2742 -176.906 -0.97291 83.8567 -22.5477 18.8317 -1.26491 66.8942 4.88122 5.01544 41.7052 11.11 3.14927 176.367 28.5257 87.7162 -11.8796 -1.71286 -1.84258 61.7965 -2.28474 -1.17355 43.139 -3.01726 -11.0844 -1.14816 7.28203 -89.7799 12.3184 -2.17722 0.685555 0.649017 -2.14493 0.780746 -21.9008 -2.28257 -0.000819245 -1.88812 -2.28255 -0.000814602 93.092 -42.5497 -97.1227 36.4318 -10.8805 25.9981 -9.82858 -18.3288 -34.5712 0.659555 -0.0815162 1.69654 -93.5197 -44.8199 72.5 -17.6974 5.78457 -11.5004 10.385 2.3201 -61.6194 17.3032 1.33561 3.84307 -2.24665 -0.846156 -1.56142 1.62666 -0.546398 3.29841 
75.9137 94.9759 49.188 86.7643 -30.1377 83.8665 -176.077 -5.02541 85.08 -23.2602 23.3084 -1.17335 66.7972 5.72707 5.37046 45.0564 14.7201 4.91591 176.288 31.2318 87.2103 -6.88246 1.81156 -2.12301 64.7237 -2.48553 -1.29939 44.3958 -1.07658 -3.10098 -1.48198 7.33166 -89.7531 12.2238 -2.82852 0.808951 0.555611 -2.79016 0.93273 -22.0042 -2.94078 -0.0792624 -1.9916 -2.94075 -0.0792566 93.3943 -42.7385 -96.5762 35.7777 -10.2269 29.4461 -10.8125 -19.3009 -35.1611 2.33753 0.0214184 2.28364 -92.9044 -43.9375 73.1988 -15.4382 3.414 -15.8736 10.8406 1.65376 -64.8001 18.256 1.41201 3.87364 -0.967557 -0.813949 -2.16911 0.414889 -0.441128 3.75857 
81.3038 93.1737 54.3054 88.1809 -28.9961 84.4766 -174.914 -9.3912 87.6141 -25.4368 28.8353 -0.651029 64.5265 4.25995 4.56081 49.9044 20.958 8.39969 175.742 31.2243 87.8172 -7.81809 1.70705 -1.26474 64.0945 -2.71854 -1.43822 44.5531 -2.66527 -9.11008 -1.72083 7.45378 -89.724 11.9837 -3.29133 0.907819 0.316493 -3.24819 1.05193 -22.2522 -3.41181 -0.124463 -2.23955 -3.41183 -0.124472 93.5785 -43.1015 -96.1945 35.0366 -9.82771 31.2002 -11.074 -19.8426 -34.9274 3.38671 0.0978557 2.6337 -92.3627 -42.6479 73.6765 -14.653 1.47096 -17.4026 9.69026 0.42726 -67.4623 21.0228 1.66815 4.1092 0.350829 -0.613865 -3.59774 -1.42566 -0.0681822 5.31429 
87.3707 91.5888 59.9508 89.4272 -30.401 86.6751 -173.664 -13.3744 90.8926 -28.22 30.351 0.733314 61.6416 1.35975 1.98126 52.8405 26.0032 11.927 176.766 34.5547 90.0413 -22.3618 2.20188 -1.18868 62.019 -0.81446 -0.460345 38.0282 -1.66846 -7.56289 -1.69657 7.51967 -89.9593 11.8475 -3.35462 0.439955 0.180812 -3.33199 0.587326 -22.3887 -3.33158 -0.589741 -2.3761 -3.33157 -0.589744 93.5451 -43.0404 -96.2626 33.6052 -9.09363 32.0767 -11.2472 -20.0935 -33.9294 3.61785 0.102964 2.48979 -92.5202 -43.3715 73.6381 -14.5117 -0.484468 -14.6818 10.0902 0.138333 -70.6225 21.7472 1.9645 5.22508 1.15279 0.162359 -2.57242 -2.66799 0.5097 5.76408 
